<svg width="71" height="71" viewBox="0 0 71 71" fill="none" xmlns="http://www.w3.org/2000/svg">
<rect width="71" height="71" fill="#9ACF28"/>
<path d="M24.376 50V23.18H35.716C37.564 23.18 39.148 23.492 40.468 24.116C41.788 24.74 42.796 25.64 43.492 26.816C44.188 27.968 44.536 29.372 44.536 31.028C44.536 32.204 44.212 33.332 43.564 34.412C42.916 35.468 41.848 36.356 40.36 37.076V34.34C41.776 34.892 42.868 35.552 43.636 36.32C44.404 37.088 44.932 37.928 45.22 38.84C45.508 39.728 45.652 40.664 45.652 41.648C45.652 44.288 44.776 46.34 43.024 47.804C41.272 49.268 38.836 50 35.716 50H24.376ZM29.956 45.14H36.364C37.492 45.14 38.392 44.816 39.064 44.168C39.736 43.52 40.072 42.68 40.072 41.648C40.072 40.592 39.736 39.74 39.064 39.092C38.392 38.444 37.492 38.12 36.364 38.12H29.956V45.14ZM29.956 33.26H36.112C36.976 33.26 37.66 33.02 38.164 32.54C38.692 32.036 38.956 31.376 38.956 30.56C38.956 29.744 38.692 29.096 38.164 28.616C37.66 28.112 36.976 27.86 36.112 27.86H29.956V33.26Z" fill="white"/>
</svg>
