<svg width="71" height="71" viewBox="0 0 71 71" fill="none" xmlns="http://www.w3.org/2000/svg">
<rect width="71" height="71" fill="#FF53C4"/>
<path d="M24.376 50V23.18H34.636C36.484 23.18 38.116 23.504 39.532 24.152C40.972 24.8 42.1 25.76 42.916 27.032C43.732 28.304 44.14 29.876 44.14 31.748C44.14 33.572 43.72 35.132 42.88 36.428C42.04 37.7 40.912 38.66 39.496 39.308L45.616 50H39.352L32.728 38.156L36.328 40.28H29.956V50H24.376ZM29.956 35.42H34.672C35.464 35.42 36.148 35.264 36.724 34.952C37.3 34.64 37.744 34.208 38.056 33.656C38.392 33.104 38.56 32.468 38.56 31.748C38.56 31.004 38.392 30.356 38.056 29.804C37.744 29.252 37.3 28.82 36.724 28.508C36.148 28.196 35.464 28.04 34.672 28.04H29.956V35.42Z" fill="white"/>
</svg>
